<?xml version="1.0" standalone="no"?>
<!DOCTYPE svg PUBLIC "-//W3C//DTD SVG 20010904//EN"
 "http://www.w3.org/TR/2001/REC-SVG-20010904/DTD/svg10.dtd">
<svg version="1.0" xmlns="http://www.w3.org/2000/svg"
 width="225.000000pt" height="225.000000pt" viewBox="0 0 225.000000 225.000000"
 preserveAspectRatio="xMidYMid meet">
<metadata>
Created by potrace 1.11, written by Peter Selinger 2001-2013
</metadata>
<g transform="translate(0.000000,225.000000) scale(0.100000,-0.100000)"
fill="#000000" stroke="none">
<path d="M995 2239 c-160 -17 -364 -93 -506 -190 -81 -55 -198 -166 -260 -248
-65 -87 -153 -264 -184 -374 -106 -375 -3 -789 268 -1074 39 -41 100 -97 136
-124 86 -65 264 -153 373 -184 190 -53 416 -53 605 0 110 31 287 119 374 184
364 276 527 761 404 1199 -31 109 -119 287 -184 373 -186 244 -476 407 -782
439 -112 11 -129 11 -244 -1z m763 -429 c18 -11 41 -34 52 -52 19 -32 20 -52
20 -453 0 -479 1 -471 -80 -513 l-44 -22 -581 0 -581 0 -44 23 c-81 41 -80 33
-80 512 0 401 1 421 20 453 11 18 34 41 52 52 32 19 52 20 633 20 581 0 601
-1 633 -20z m-453 -1148 c16 -69 43 -92 108 -92 30 0 68 -5 86 -11 55 -19 68
-73 26 -114 l-24 -25 -376 0 -376 0 -24 25 c-63 62 -9 125 107 125 27 0 58 4
68 10 15 8 38 57 56 118 3 10 42 12 171 10 l167 -3 11 -43z"/>
<path d="M535 1708 c-3 -7 -4 -195 -3 -418 l3 -405 590 0 590 0 0 415 0 415
-588 3 c-465 2 -589 0 -592 -10z"/>
</g>
</svg>
