<?xml version="1.0" standalone="no"?>
<!DOCTYPE svg PUBLIC "-//W3C//DTD SVG 20010904//EN"
 "http://www.w3.org/TR/2001/REC-SVG-20010904/DTD/svg10.dtd">
<svg version="1.0" xmlns="http://www.w3.org/2000/svg"
 width="512.000000pt" height="512.000000pt" viewBox="0 0 512.000000 512.000000"
 preserveAspectRatio="xMidYMid meet">
<metadata>
Created by potrace 1.11, written by Peter Selinger 2001-2013
</metadata>
<g transform="translate(0.000000,512.000000) scale(0.100000,-0.100000)"
fill="#000000" stroke="none">
<path d="M2925 3927 c-34 -11 -83 -43 -103 -67 -24 -28 -70 -135 -202 -465
-40 -99 -78 -193 -85 -210 -7 -16 -54 -133 -105 -260 -51 -126 -103 -257 -117
-290 -14 -33 -32 -78 -40 -100 -9 -22 -21 -53 -28 -70 -14 -31 -185 -455 -325
-804 -48 -119 -83 -222 -85 -245 -4 -86 46 -173 120 -211 110 -55 233 -24 298
76 13 20 217 510 231 554 2 6 8 21 13 35 6 14 25 61 42 105 18 44 38 94 46
110 17 38 37 87 41 100 5 21 216 542 240 593 13 29 24 57 24 62 0 6 4 18 10
28 5 9 28 64 51 122 22 58 47 119 54 135 7 17 41 100 75 185 34 85 68 169 75
185 84 190 86 273 10 363 -54 64 -163 96 -240 69z"/>
<path d="M1342 3590 c-30 -14 -169 -146 -495 -472 -249 -249 -463 -468 -476
-487 -17 -24 -25 -51 -29 -101 -4 -60 -1 -73 22 -116 37 -67 927 -957 980
-979 58 -24 134 -23 189 4 81 39 138 136 130 221 -8 86 -15 94 -399 480 l-374
375 365 365 c234 234 373 380 385 406 35 70 30 158 -11 215 -11 16 -17 34 -13
40 4 7 3 9 -3 6 -6 -4 -21 2 -34 12 -71 55 -159 67 -237 31z"/>
<path d="M3526 3590 c-56 -28 -85 -58 -112 -114 -27 -58 -26 -133 2 -192 11
-22 163 -183 381 -401 200 -200 363 -367 363 -371 0 -4 -164 -171 -365 -371
-207 -208 -372 -380 -381 -400 -21 -43 -26 -119 -11 -167 15 -50 79 -119 129
-139 60 -24 134 -22 187 4 50 26 950 922 978 973 23 45 23 151 0 199 -10 20
-80 98 -157 175 -76 76 -136 142 -133 148 3 5 2 6 -3 3 -5 -3 -153 138 -328
314 -209 209 -333 326 -361 339 -54 26 -136 26 -189 0z"/>
</g>
</svg>
