<?xml version="1.0" standalone="no"?>
<!DOCTYPE svg PUBLIC "-//W3C//DTD SVG 20010904//EN"
 "http://www.w3.org/TR/2001/REC-SVG-20010904/DTD/svg10.dtd">
<svg version="1.0" xmlns="http://www.w3.org/2000/svg"
 width="980.000000pt" height="980.000000pt" viewBox="0 0 980.000000 980.000000"
 preserveAspectRatio="xMidYMid meet">
<metadata>
Created by potrace 1.11, written by Peter Selinger 2001-2013
</metadata>
<g transform="translate(0.000000,980.000000) scale(0.100000,-0.100000)"
fill="#000000" stroke="none">
<path d="M5785 7967 c-102 -39 -206 -115 -267 -197 -29 -39 -80 -162 -906
-2206 -1008 -2492 -1089 -2696 -1188 -2990 -95 -282 -98 -337 -28 -481 92
-185 289 -296 502 -280 143 11 270 75 356 180 47 58 189 399 1068 2572 952
2353 1098 2730 1128 2920 10 60 8 76 -9 134 -39 128 -149 258 -267 315 -118
58 -284 72 -389 33z"/>
<path d="M2320 7245 c-30 -9 -71 -27 -90 -40 -152 -106 -1635 -1573 -2058
-2035 -148 -161 -165 -197 -170 -345 -6 -177 21 -236 193 -425 278 -304 1249
-1281 1690 -1700 337 -320 368 -340 527 -348 174 -8 284 28 392 128 109 103
150 207 150 390 1 105 -1 120 -26 170 -15 30 -57 93 -94 139 -75 93 -674 708
-1228 1261 l-365 364 692 696 c703 705 929 941 974 1017 35 60 53 135 53 223
0 228 -133 416 -348 491 -78 27 -220 34 -292 14z"/>
<path d="M7240 7246 c-171 -44 -298 -149 -365 -301 -62 -140 -54 -324 19 -429
56 -80 199 -231 846 -887 703 -713 800 -813 800 -828 0 -7 -181 -195 -403
-419 -740 -748 -1001 -1016 -1128 -1154 -110 -120 -128 -145 -149 -205 -34
-96 -33 -228 3 -331 81 -232 259 -350 517 -340 137 5 166 19 310 149 297 269
1684 1650 1932 1924 70 78 120 143 141 185 31 62 32 69 32 190 0 180 -9 200
-153 358 -156 171 -1559 1579 -1797 1804 -210 199 -288 262 -343 278 -63 18
-202 21 -262 6z"/>
</g>
</svg>
